<svg width="349" height="127" viewBox="0 0 349 127" fill="none" xmlns="http://www.w3.org/2000/svg">
<path d="M349 0H0V127H349V0Z" fill="#171717"/>
<path d="M342 38H8V119H342V38Z" fill="#EEEEEE"/>
<path d="M26.1749 11.5493H21.5347V16.1896H26.1749V11.5493Z" fill="#EEEEEE"/>
<path d="M16.8688 20.8291H12.2285V25.4693H16.8688V20.8291Z" fill="#EEEEEE"/>
<path d="M12.2272 25.4951H7.58691V30.1354H12.2272V25.4951Z" fill="#EEEEEE"/>
<path d="M30.815 6.88232H26.1748V11.5226H30.815V6.88232Z" fill="#EEEEEE"/>
<path d="M16.8688 11.5493H12.2285V16.1896H16.8688V11.5493Z" fill="#EEEEEE"/>
<path d="M21.5089 16.1885H16.8687V20.8287H21.5089V16.1885Z" fill="#EEEEEE"/>
<path d="M26.1749 20.8291H21.5347V25.4693H26.1749V20.8291Z" fill="#EEEEEE"/>
<path d="M30.815 25.4951H26.1748V30.1354H30.815V25.4951Z" fill="#EEEEEE"/>
<path d="M12.2272 6.88232H7.58691V11.5226H12.2272V6.88232Z" fill="#EEEEEE"/>
<path d="M21.995 52.6815V72.9395H18.9385V52.6815H21.995ZM33.3011 57.746V60.12H25.002V57.746H33.3011ZM27.2276 54.1059H30.1852V68.4784C30.1852 69.0521 30.2709 69.484 30.4424 69.7741C30.6138 70.0577 30.8348 70.2522 31.1051 70.3578C31.3821 70.4567 31.6821 70.5061 32.0053 70.5061C32.2427 70.5061 32.4504 70.4896 32.6284 70.4567C32.8065 70.4237 32.945 70.3973 33.0439 70.3775L33.578 72.8208C33.4066 72.8867 33.1626 72.9526 32.846 73.0186C32.5295 73.0911 32.1339 73.1307 31.6591 73.1373C30.8809 73.1505 30.1555 73.012 29.4829 72.7218C28.8103 72.4317 28.2662 71.9833 27.8508 71.3766C27.4354 70.7699 27.2276 70.0083 27.2276 69.0916V54.1059ZM46.902 52.6815V72.9395H43.9444V52.6815H46.902ZM57.2807 73.2461C55.8563 73.2461 54.6133 72.9197 53.5516 72.2668C52.4899 71.614 51.6656 70.7007 51.0787 69.5269C50.4918 68.3531 50.1983 66.9814 50.1983 65.412C50.1983 63.8359 50.4918 62.4577 51.0787 61.2773C51.6656 60.0969 52.4899 59.1803 53.5516 58.5274C54.6133 57.8746 55.8563 57.5482 57.2807 57.5482C58.7051 57.5482 59.9481 57.8746 61.0098 58.5274C62.0715 59.1803 62.8958 60.0969 63.4827 61.2773C64.0696 62.4577 64.3631 63.8359 64.3631 65.412C64.3631 66.9814 64.0696 68.3531 63.4827 69.5269C62.8958 70.7007 62.0715 71.614 61.0098 72.2668C59.9481 72.9197 58.7051 73.2461 57.2807 73.2461ZM57.2906 70.7633C58.2138 70.7633 58.9788 70.5193 59.5854 70.0313C60.1921 69.5433 60.6405 68.8938 60.9307 68.0827C61.2274 67.2716 61.3758 66.378 61.3758 65.4021C61.3758 64.4327 61.2274 63.5425 60.9307 62.7313C60.6405 61.9136 60.1921 61.2575 59.5854 60.7629C58.9788 60.2683 58.2138 60.0211 57.2906 60.0211C56.3608 60.0211 55.5893 60.2683 54.976 60.7629C54.3693 61.2575 53.9176 61.9136 53.6208 62.7313C53.3307 63.5425 53.1856 64.4327 53.1856 65.4021C53.1856 66.378 53.3307 67.2716 53.6208 68.0827C53.9176 68.8938 54.3693 69.5433 54.976 70.0313C55.5893 70.5193 56.3608 70.7633 57.2906 70.7633ZM74.0642 73.2461C72.6398 73.2461 71.3968 72.9197 70.3351 72.2668C69.2734 71.614 68.4491 70.7007 67.8622 69.5269C67.2753 68.3531 66.9819 66.9814 66.9819 65.412C66.9819 63.8359 67.2753 62.4577 67.8622 61.2773C68.4491 60.0969 69.2734 59.1803 70.3351 58.5274C71.3968 57.8746 72.6398 57.5482 74.0642 57.5482C75.4886 57.5482 76.7317 57.8746 77.7934 58.5274C78.8551 59.1803 79.6794 60.0969 80.2663 61.2773C80.8532 62.4577 81.1466 63.8359 81.1466 65.412C81.1466 66.9814 80.8532 68.3531 80.2663 69.5269C79.6794 70.7007 78.8551 71.614 77.7934 72.2668C76.7317 72.9197 75.4886 73.2461 74.0642 73.2461ZM74.0741 70.7633C74.9973 70.7633 75.7623 70.5193 76.369 70.0313C76.9757 69.5433 77.4241 68.8938 77.7142 68.0827C78.011 67.2716 78.1593 66.378 78.1593 65.4021C78.1593 64.4327 78.011 63.5425 77.7142 62.7313C77.4241 61.9136 76.9757 61.2575 76.369 60.7629C75.7623 60.2683 74.9973 60.0211 74.0741 60.0211C73.1443 60.0211 72.3728 60.2683 71.7595 60.7629C71.1528 61.2575 70.7011 61.9136 70.4044 62.7313C70.1142 63.5425 69.9691 64.4327 69.9691 65.4021C69.9691 66.378 70.1142 67.2716 70.4044 68.0827C70.7011 68.8938 71.1528 69.5433 71.7595 70.0313C72.3728 70.5193 73.1443 70.7633 74.0741 70.7633ZM87.1681 67.7859L87.1483 64.1755H87.6627L93.7163 57.746H97.2575L90.3532 65.0658H89.8883L87.1681 67.7859ZM84.4479 72.9395V52.6815H87.4055V72.9395H84.4479ZM94.0427 72.9395L88.6024 65.7186L90.64 63.6513L97.673 72.9395H94.0427ZM111.338 61.4553L108.658 61.9301C108.545 61.5872 108.367 61.2608 108.123 60.9509C107.886 60.6409 107.563 60.387 107.154 60.1892C106.745 59.9914 106.234 59.8925 105.621 59.8925C104.783 59.8925 104.084 60.0804 103.524 60.4563C102.963 60.8256 102.683 61.3037 102.683 61.8906C102.683 62.3983 102.871 62.8072 103.247 63.1171C103.623 63.4271 104.229 63.6809 105.067 63.8788L107.48 64.4327C108.878 64.7558 109.92 65.2537 110.606 65.9263C111.292 66.599 111.635 67.4727 111.635 68.5476C111.635 69.4576 111.371 70.2687 110.844 70.9809C110.323 71.6865 109.594 72.2404 108.658 72.6427C107.728 73.045 106.65 73.2461 105.423 73.2461C103.722 73.2461 102.334 72.8834 101.259 72.158C100.184 71.426 99.5243 70.3874 99.2803 69.0422L102.139 68.6069C102.317 69.3521 102.683 69.9159 103.237 70.2984C103.791 70.6743 104.513 70.8622 105.403 70.8622C106.373 70.8622 107.147 70.6611 107.728 70.2588C108.308 69.85 108.598 69.3521 108.598 68.7652C108.598 68.2904 108.42 67.8915 108.064 67.5683C107.715 67.2452 107.177 67.0012 106.452 66.8364L103.88 66.2725C102.462 65.9494 101.414 65.435 100.734 64.7294C100.062 64.0238 99.7255 63.1303 99.7255 62.0488C99.7255 61.152 99.976 60.3673 100.477 59.6946C100.978 59.022 101.671 58.4978 102.554 58.1219C103.438 57.7394 104.45 57.5482 105.591 57.5482C107.233 57.5482 108.526 57.9043 109.469 58.6165C110.412 59.3221 111.035 60.2683 111.338 61.4553ZM125.216 52.6815V72.9395H122.258V52.6815H125.216ZM129.195 72.9395V57.746H132.153V72.9395H129.195ZM130.689 55.4017C130.174 55.4017 129.732 55.2302 129.363 54.8873C129 54.5378 128.819 54.1224 128.819 53.641C128.819 53.153 129 52.7376 129.363 52.3947C129.732 52.0452 130.174 51.8704 130.689 51.8704C131.203 51.8704 131.641 52.0452 132.004 52.3947C132.373 52.7376 132.558 53.153 132.558 53.641C132.558 54.1224 132.373 54.5378 132.004 54.8873C131.641 55.2302 131.203 55.4017 130.689 55.4017ZM138.852 67.7859L138.832 64.1755H139.346L145.4 57.746H148.941L142.037 65.0658H141.572L138.852 67.7859ZM136.131 72.9395V52.6815H139.089V72.9395H136.131ZM145.726 72.9395L140.286 65.7186L142.324 63.6513L149.356 72.9395H145.726ZM157.559 73.2461C156.062 73.2461 154.773 72.9263 153.691 72.2866C152.617 71.6404 151.786 70.7336 151.199 69.5664C150.618 68.3926 150.328 67.0177 150.328 65.4416C150.328 63.8854 150.618 62.5137 151.199 61.3267C151.786 60.1398 152.603 59.2132 153.652 58.5472C154.707 57.8812 155.94 57.5482 157.351 57.5482C158.209 57.5482 159.039 57.6899 159.844 57.9735C160.648 58.2571 161.371 58.7022 162.01 59.3089C162.65 59.9155 163.154 60.7036 163.524 61.673C163.893 62.6357 164.078 63.8062 164.078 65.1845V66.233H152V64.0173H161.179C161.179 63.2391 161.021 62.55 160.705 61.9499C160.388 61.3432 159.943 60.8651 159.369 60.5156C158.802 60.1661 158.136 59.9914 157.371 59.9914C156.54 59.9914 155.815 60.1958 155.195 60.6047C154.582 61.0069 154.107 61.5345 153.771 62.1873C153.441 62.8336 153.276 63.5359 153.276 64.2942V66.0252C153.276 67.0408 153.454 67.9046 153.81 68.6168C154.173 69.329 154.677 69.8731 155.324 70.2489C155.97 70.6182 156.725 70.8029 157.589 70.8029C158.149 70.8029 158.66 70.7237 159.122 70.5655C159.583 70.4006 159.982 70.1566 160.319 69.8335C160.655 69.5104 160.912 69.1114 161.09 68.6366L163.89 69.1411C163.665 69.9654 163.263 70.6875 162.683 71.3073C162.109 71.9206 161.387 72.3987 160.517 72.7416C159.653 73.0779 158.667 73.2461 157.559 73.2461ZM176.6 78.637C176.158 78.637 175.756 78.6007 175.394 78.5282C175.031 78.4622 174.76 78.3897 174.582 78.3106L175.295 75.8871C175.835 76.0322 176.317 76.0949 176.739 76.0751C177.161 76.0553 177.533 75.897 177.857 75.6003C178.186 75.3035 178.476 74.8189 178.727 74.1462L179.093 73.1373L173.534 57.746H176.699L180.547 69.5368H180.705L184.553 57.746H187.728L181.467 74.9672C181.177 75.7586 180.807 76.4279 180.359 76.9752C179.911 77.5291 179.377 77.9446 178.757 78.2216C178.137 78.4985 177.418 78.637 176.6 78.637ZM196.391 73.2461C194.966 73.2461 193.723 72.9197 192.662 72.2668C191.6 71.614 190.776 70.7007 190.189 69.5269C189.602 68.3531 189.308 66.9814 189.308 65.412C189.308 63.8359 189.602 62.4577 190.189 61.2773C190.776 60.0969 191.6 59.1803 192.662 58.5274C193.723 57.8746 194.966 57.5482 196.391 57.5482C197.815 57.5482 199.058 57.8746 200.12 58.5274C201.182 59.1803 202.006 60.0969 202.593 61.2773C203.18 62.4577 203.473 63.8359 203.473 65.412C203.473 66.9814 203.18 68.3531 202.593 69.5269C202.006 70.7007 201.182 71.614 200.12 72.2668C199.058 72.9197 197.815 73.2461 196.391 73.2461ZM196.401 70.7633C197.324 70.7633 198.089 70.5193 198.696 70.0313C199.302 69.5433 199.751 68.8938 200.041 68.0827C200.338 67.2716 200.486 66.378 200.486 65.4021C200.486 64.4327 200.338 63.5425 200.041 62.7313C199.751 61.9136 199.302 61.2575 198.696 60.7629C198.089 60.2683 197.324 60.0211 196.401 60.0211C195.471 60.0211 194.699 60.2683 194.086 60.7629C193.479 61.2575 193.028 61.9136 192.731 62.7313C192.441 63.5425 192.296 64.4327 192.296 65.4021C192.296 66.378 192.441 67.2716 192.731 68.0827C193.028 68.8938 193.479 69.5433 194.086 70.0313C194.699 70.5193 195.471 70.7633 196.401 70.7633ZM216.399 66.6385V57.746H219.367V72.9395H216.458V70.3083H216.3C215.951 71.1194 215.39 71.7953 214.619 72.3361C213.854 72.8702 212.901 73.1373 211.76 73.1373C210.784 73.1373 209.92 72.923 209.168 72.4943C208.423 72.0591 207.836 71.4162 207.408 70.5655C206.986 69.7148 206.775 68.663 206.775 67.4101V57.746H209.732V67.054C209.732 68.0893 210.019 68.9136 210.593 69.5269C211.166 70.1401 211.912 70.4468 212.828 70.4468C213.382 70.4468 213.933 70.3083 214.48 70.0313C215.034 69.7544 215.492 69.3356 215.855 68.7751C216.224 68.2146 216.406 67.5024 216.399 66.6385ZM225.586 52.6815V59.8925H223.133V52.6815H225.586ZM229.406 72.9395V57.746H232.265V60.1595H232.423C232.7 59.3418 233.188 58.6989 233.887 58.2307C234.593 57.7559 235.391 57.5185 236.281 57.5185C236.466 57.5185 236.683 57.5251 236.934 57.5383C237.191 57.5515 237.392 57.5679 237.537 57.5877V60.4167C237.419 60.3837 237.208 60.3475 236.904 60.3079C236.601 60.2618 236.298 60.2387 235.994 60.2387C235.295 60.2387 234.672 60.387 234.125 60.6838C233.584 60.9739 233.155 61.3795 232.839 61.9005C232.522 62.4148 232.364 63.0017 232.364 63.6612V72.9395H229.406ZM246.101 73.2461C244.604 73.2461 243.315 72.9263 242.233 72.2866C241.158 71.6404 240.328 70.7336 239.741 69.5664C239.16 68.3926 238.87 67.0177 238.87 65.4416C238.87 63.8854 239.16 62.5137 239.741 61.3267C240.328 60.1398 241.145 59.2132 242.194 58.5472C243.249 57.8812 244.482 57.5482 245.893 57.5482C246.751 57.5482 247.581 57.6899 248.386 57.9735C249.19 58.2571 249.913 58.7022 250.552 59.3089C251.192 59.9155 251.696 60.7036 252.066 61.673C252.435 62.6357 252.62 63.8062 252.62 65.1845V66.233H240.542V64.0173H249.721C249.721 63.2391 249.563 62.55 249.246 61.9499C248.93 61.3432 248.485 60.8651 247.911 60.5156C247.344 60.1661 246.678 59.9914 245.913 59.9914C245.082 59.9914 244.357 60.1958 243.737 60.6047C243.124 61.0069 242.649 61.5345 242.312 62.1873C241.983 62.8336 241.818 63.5359 241.818 64.2942V66.0252C241.818 67.0408 241.996 67.9046 242.352 68.6168C242.715 69.329 243.219 69.8731 243.865 70.2489C244.512 70.6182 245.267 70.8029 246.131 70.8029C246.691 70.8029 247.202 70.7237 247.664 70.5655C248.125 70.4006 248.524 70.1566 248.861 69.8335C249.197 69.5104 249.454 69.1114 249.632 68.6366L252.432 69.1411C252.207 69.9654 251.805 70.6875 251.225 71.3073C250.651 71.9206 249.929 72.3987 249.059 72.7416C248.195 73.0779 247.209 73.2461 246.101 73.2461ZM21.995 106.939L17.524 91.746H20.5805L23.5579 102.904H23.7062L26.6935 91.746H29.75L32.7175 102.854H32.8658L35.8234 91.746H38.8799L34.4188 106.939H31.4019L28.3157 95.9697H28.0882L25.002 106.939H21.995ZM41.6866 106.939V91.746H44.5453V94.1595H44.7036C44.9805 93.3418 45.4685 92.6989 46.1675 92.2307C46.8731 91.7559 47.671 91.5185 48.5613 91.5185C48.7459 91.5185 48.9635 91.5251 49.2141 91.5383C49.4713 91.5515 49.6724 91.5679 49.8175 91.5877V94.4167C49.6988 94.3837 49.4878 94.3475 49.1845 94.3079C48.8811 94.2618 48.5778 94.2387 48.2744 94.2387C47.5754 94.2387 46.9523 94.387 46.4049 94.6838C45.8642 94.9739 45.4355 95.3795 45.119 95.9005C44.8025 96.4148 44.6442 97.0017 44.6442 97.6612V106.939H41.6866ZM52.377 106.939V91.746H55.3345V106.939H52.377ZM53.8706 89.4017C53.3562 89.4017 52.9144 89.2302 52.5451 88.8873C52.1824 88.5378 52.0011 88.1224 52.0011 87.641C52.0011 87.153 52.1824 86.7376 52.5451 86.3947C52.9144 86.0452 53.3562 85.8704 53.8706 85.8704C54.3849 85.8704 54.8235 86.0452 55.1862 86.3947C55.5555 86.7376 55.7401 87.153 55.7401 87.641C55.7401 88.1224 55.5555 88.5378 55.1862 88.8873C54.8235 89.2302 54.3849 89.4017 53.8706 89.4017ZM66.4057 91.746V94.12H58.1067V91.746H66.4057ZM60.3323 88.1059H63.2898V102.478C63.2898 103.052 63.3756 103.484 63.547 103.774C63.7185 104.058 63.9394 104.252 64.2098 104.358C64.4867 104.457 64.7868 104.506 65.1099 104.506C65.3473 104.506 65.555 104.49 65.7331 104.457C65.9111 104.424 66.0496 104.397 66.1485 104.378L66.6826 106.821C66.5112 106.887 66.2672 106.953 65.9507 107.019C65.6341 107.091 65.2385 107.131 64.7637 107.137C63.9855 107.15 63.2602 107.012 62.5875 106.722C61.9149 106.432 61.3709 105.983 60.9554 105.377C60.54 104.77 60.3323 104.008 60.3323 103.092V88.1059ZM69.6773 106.939V91.746H72.6349V106.939H69.6773ZM71.171 89.4017C70.6566 89.4017 70.2148 89.2302 69.8455 88.8873C69.4828 88.5378 69.3014 88.1224 69.3014 87.641C69.3014 87.153 69.4828 86.7376 69.8455 86.3947C70.2148 86.0452 70.6566 85.8704 71.171 85.8704C71.6853 85.8704 72.1238 86.0452 72.4865 86.3947C72.8558 86.7376 73.0405 87.153 73.0405 87.641C73.0405 88.1224 72.8558 88.5378 72.4865 88.8873C72.1238 89.2302 71.6853 89.4017 71.171 89.4017ZM79.5714 97.9183V106.939H76.6138V91.746H79.4527V94.2189H79.6406C79.9901 93.4144 80.5374 92.7681 81.2826 92.2801C82.0344 91.7922 82.9807 91.5482 84.1215 91.5482C85.1568 91.5482 86.0635 91.7658 86.8417 92.201C87.6198 92.6296 88.2232 93.2693 88.6518 94.12C89.0805 94.9706 89.2948 96.0225 89.2948 97.2754V106.939H86.3372V97.6315C86.3372 96.5302 86.0503 95.6697 85.4766 95.0498C84.9029 94.4233 84.1149 94.1101 83.1126 94.1101C82.4267 94.1101 81.8168 94.2585 81.2826 94.5552C80.7551 94.8519 80.3363 95.2872 80.0264 95.8609C79.723 96.428 79.5714 97.1138 79.5714 97.9183ZM99.6315 112.954C98.4247 112.954 97.3861 112.795 96.5156 112.479C95.6518 112.162 94.9462 111.743 94.3988 111.223C93.8515 110.702 93.4427 110.131 93.1723 109.511L95.7144 108.463C95.8925 108.753 96.1299 109.06 96.4266 109.383C96.73 109.712 97.1388 109.993 97.6532 110.223C98.1741 110.454 98.8435 110.57 99.6612 110.57C100.782 110.57 101.709 110.296 102.441 109.749C103.173 109.208 103.539 108.344 103.539 107.157V104.17H103.351C103.173 104.493 102.915 104.852 102.579 105.248C102.249 105.644 101.794 105.987 101.214 106.277C100.634 106.567 99.8788 106.712 98.949 106.712C97.7488 106.712 96.6673 106.432 95.7045 105.871C94.7483 105.304 93.99 104.47 93.4295 103.369C92.8755 102.261 92.5986 100.899 92.5986 99.2834C92.5986 97.6678 92.8722 96.2829 93.4196 95.1289C93.9735 93.9749 94.7319 93.0912 95.6946 92.478C96.6574 91.8581 97.7488 91.5482 98.9687 91.5482C99.9117 91.5482 100.673 91.7064 101.254 92.023C101.834 92.3329 102.286 92.6956 102.609 93.111C102.939 93.5265 103.192 93.8925 103.37 94.209H103.588V91.746H106.486V107.276C106.486 108.581 106.183 109.653 105.576 110.491C104.97 111.328 104.149 111.948 103.113 112.35C102.085 112.752 100.924 112.954 99.6315 112.954ZM99.6018 104.259C100.452 104.259 101.171 104.061 101.758 103.665C102.352 103.263 102.8 102.689 103.103 101.944C103.413 101.192 103.568 100.292 103.568 99.2438C103.568 98.2217 103.417 97.3215 103.113 96.5434C102.81 95.7653 102.365 95.1586 101.778 94.7234C101.191 94.2815 100.466 94.0606 99.6018 94.0606C98.7116 94.0606 97.9697 94.2914 97.3762 94.753C96.7827 95.208 96.3343 95.8279 96.0309 96.6126C95.7342 97.3974 95.5858 98.2744 95.5858 99.2438C95.5858 100.24 95.7375 101.113 96.0408 101.865C96.3442 102.617 96.7926 103.204 97.3861 103.626C97.9862 104.048 98.7248 104.259 99.6018 104.259ZM122.246 107.276C121.283 107.276 120.413 107.098 119.635 106.742C118.857 106.379 118.24 105.855 117.785 105.169C117.337 104.483 117.112 103.642 117.112 102.647C117.112 101.789 117.277 101.084 117.607 100.53C117.937 99.9758 118.382 99.5373 118.942 99.2141C119.503 98.891 120.129 98.647 120.822 98.4822C121.514 98.3173 122.22 98.192 122.938 98.1063C123.849 98.0008 124.587 97.915 125.154 97.8491C125.721 97.7766 126.133 97.6612 126.391 97.5029C126.648 97.3446 126.776 97.0874 126.776 96.7313V96.6621C126.776 95.7982 126.532 95.1289 126.044 94.6541C125.563 94.1793 124.844 93.9419 123.888 93.9419C122.892 93.9419 122.108 94.1628 121.534 94.6047C120.967 95.0399 120.574 95.5246 120.357 96.0587L117.577 95.4257C117.907 94.5024 118.388 93.7573 119.021 93.1902C119.661 92.6165 120.396 92.201 121.227 91.9438C122.058 91.6801 122.932 91.5482 123.849 91.5482C124.455 91.5482 125.098 91.6207 125.777 91.7658C126.463 91.9043 127.103 92.1614 127.696 92.5373C128.296 92.9132 128.788 93.4506 129.17 94.1496C129.553 94.8421 129.744 95.7422 129.744 96.85V106.939H126.856V104.862H126.737C126.546 105.245 126.259 105.621 125.876 105.99C125.494 106.359 125.003 106.666 124.402 106.91C123.802 107.154 123.084 107.276 122.246 107.276ZM122.889 104.902C123.707 104.902 124.406 104.74 124.986 104.417C125.573 104.094 126.018 103.672 126.321 103.151C126.631 102.623 126.786 102.06 126.786 101.46V99.501C126.681 99.6065 126.476 99.7054 126.173 99.7977C125.876 99.8835 125.537 99.9593 125.154 100.025C124.772 100.085 124.399 100.141 124.036 100.193C123.674 100.24 123.37 100.279 123.126 100.312C122.553 100.385 122.028 100.507 121.554 100.678C121.085 100.85 120.71 101.097 120.426 101.42C120.149 101.736 120.011 102.159 120.011 102.686C120.011 103.418 120.281 103.972 120.822 104.348C121.362 104.717 122.052 104.902 122.889 104.902ZM144.012 86.6815V106.939H141.055V86.6815H144.012ZM154.54 107.246C153.043 107.246 151.753 106.926 150.672 106.287C149.597 105.64 148.766 104.734 148.179 103.566C147.599 102.393 147.309 101.018 147.309 99.4416C147.309 97.8854 147.599 96.5137 148.179 95.3267C148.766 94.1398 149.584 93.2132 150.632 92.5472C151.688 91.8812 152.921 91.5482 154.332 91.5482C155.189 91.5482 156.02 91.6899 156.825 91.9735C157.629 92.2571 158.351 92.7022 158.991 93.3089C159.63 93.9155 160.135 94.7036 160.504 95.673C160.874 96.6357 161.058 97.8062 161.058 99.1845V100.233H148.981V98.0173H158.16C158.16 97.2391 158.002 96.55 157.685 95.9499C157.369 95.3432 156.923 94.8651 156.35 94.5156C155.783 94.1661 155.117 93.9914 154.352 93.9914C153.521 93.9914 152.795 94.1958 152.176 94.6047C151.562 95.0069 151.087 95.5345 150.751 96.1873C150.421 96.8336 150.257 97.5359 150.257 98.2942V100.025C150.257 101.041 150.435 101.905 150.791 102.617C151.153 103.329 151.658 103.873 152.304 104.249C152.95 104.618 153.705 104.803 154.569 104.803C155.13 104.803 155.641 104.724 156.102 104.565C156.564 104.401 156.963 104.157 157.299 103.833C157.636 103.51 157.893 103.111 158.071 102.637L160.87 103.141C160.646 103.965 160.244 104.687 159.663 105.307C159.09 105.921 158.368 106.399 157.497 106.742C156.633 107.078 155.647 107.246 154.54 107.246ZM171.432 91.746V94.12H163.133V91.746H171.432ZM165.359 88.1059H168.316V102.478C168.316 103.052 168.402 103.484 168.573 103.774C168.745 104.058 168.966 104.252 169.236 104.358C169.513 104.457 169.813 104.506 170.136 104.506C170.374 104.506 170.581 104.49 170.759 104.457C170.937 104.424 171.076 104.397 171.175 104.378L171.709 106.821C171.537 106.887 171.293 106.953 170.977 107.019C170.66 107.091 170.265 107.131 169.79 107.137C169.012 107.15 168.286 107.012 167.614 106.722C166.941 106.432 166.397 105.983 165.982 105.377C165.566 104.77 165.359 104.008 165.359 103.092V88.1059ZM181.796 91.746V94.12H173.497V91.746H181.796ZM175.722 88.1059H178.68V102.478C178.68 103.052 178.766 103.484 178.937 103.774C179.109 104.058 179.33 104.252 179.6 104.358C179.877 104.457 180.177 104.506 180.5 104.506C180.737 104.506 180.945 104.49 181.123 104.457C181.301 104.424 181.44 104.397 181.539 104.378L182.073 106.821C181.901 106.887 181.657 106.953 181.341 107.019C181.024 107.091 180.629 107.131 180.154 107.137C179.376 107.15 178.65 107.012 177.978 106.722C177.305 106.432 176.761 105.983 176.346 105.377C175.93 104.77 175.722 104.008 175.722 103.092V88.1059ZM191.452 107.246C189.956 107.246 188.666 106.926 187.585 106.287C186.51 105.64 185.679 104.734 185.092 103.566C184.512 102.393 184.222 101.018 184.222 99.4416C184.222 97.8854 184.512 96.5137 185.092 95.3267C185.679 94.1398 186.497 93.2132 187.545 92.5472C188.6 91.8812 189.834 91.5482 191.245 91.5482C192.102 91.5482 192.933 91.6899 193.737 91.9735C194.542 92.2571 195.264 92.7022 195.904 93.3089C196.543 93.9155 197.048 94.7036 197.417 95.673C197.786 96.6357 197.971 97.8062 197.971 99.1845V100.233H185.893V98.0173H195.073C195.073 97.2391 194.915 96.55 194.598 95.9499C194.281 95.3432 193.836 94.8651 193.263 94.5156C192.696 94.1661 192.029 93.9914 191.265 93.9914C190.434 93.9914 189.708 94.1958 189.088 94.6047C188.475 95.0069 188 95.5345 187.664 96.1873C187.334 96.8336 187.169 97.5359 187.169 98.2942V100.025C187.169 101.041 187.347 101.905 187.704 102.617C188.066 103.329 188.571 103.873 189.217 104.249C189.863 104.618 190.618 104.803 191.482 104.803C192.043 104.803 192.554 104.724 193.015 104.565C193.477 104.401 193.876 104.157 194.212 103.833C194.549 103.51 194.806 103.111 194.984 102.637L197.783 103.141C197.559 103.965 197.157 104.687 196.576 105.307C196.003 105.921 195.281 106.399 194.41 106.742C193.546 107.078 192.56 107.246 191.452 107.246ZM201.253 106.939V91.746H204.111V94.1595H204.269C204.546 93.3418 205.034 92.6989 205.733 92.2307C206.439 91.7559 207.237 91.5185 208.127 91.5185C208.312 91.5185 208.529 91.5251 208.78 91.5383C209.037 91.5515 209.238 91.5679 209.383 91.5877V94.4167C209.265 94.3837 209.054 94.3475 208.75 94.3079C208.447 94.2618 208.144 94.2387 207.84 94.2387C207.141 94.2387 206.518 94.387 205.971 94.6838C205.43 94.9739 205.001 95.3795 204.685 95.9005C204.368 96.4148 204.21 97.0017 204.21 97.6612V106.939H201.253ZM215.672 86.6815L215.415 101.113H212.675L212.418 86.6815H215.672ZM214.05 107.127C213.502 107.127 213.034 106.936 212.645 106.554C212.256 106.165 212.065 105.696 212.071 105.149C212.065 104.608 212.256 104.147 212.645 103.764C213.034 103.375 213.502 103.181 214.05 103.181C214.584 103.181 215.046 103.375 215.435 103.764C215.824 104.147 216.022 104.608 216.028 105.149C216.022 105.512 215.926 105.845 215.741 106.148C215.563 106.445 215.326 106.682 215.029 106.86C214.732 107.038 214.406 107.127 214.05 107.127Z" fill="#171717"/>
</svg>
