<svg width="349" height="65" viewBox="0 0 349 65" fill="none" xmlns="http://www.w3.org/2000/svg">
<path d="M349 0H0V65H349V0Z" fill="#171717"/>
<path d="M341 7H7V57H341V7Z" fill="#EEEEEE"/>
<path d="M21.905 41.9395L16.2866 21.6815H19.5014L23.4481 37.3695H23.636L27.741 21.6815H30.9261L35.0311 37.3794H35.2191L39.1559 21.6815H42.3806L36.7523 41.9395H33.676L29.4127 26.7658H29.2545L24.9912 41.9395H21.905ZM49.8339 42.2461C48.4095 42.2461 47.1664 41.9197 46.1048 41.2668C45.0431 40.614 44.2188 39.7007 43.6319 38.5269C43.045 37.3531 42.7515 35.9814 42.7515 34.412C42.7515 32.8359 43.045 31.4577 43.6319 30.2773C44.2188 29.0969 45.0431 28.1803 46.1048 27.5274C47.1664 26.8746 48.4095 26.5482 49.8339 26.5482C51.2583 26.5482 52.5013 26.8746 53.563 27.5274C54.6247 28.1803 55.449 29.0969 56.0359 30.2773C56.6228 31.4577 56.9162 32.8359 56.9162 34.412C56.9162 35.9814 56.6228 37.3531 56.0359 38.5269C55.449 39.7007 54.6247 40.614 53.563 41.2668C52.5013 41.9197 51.2583 42.2461 49.8339 42.2461ZM49.8438 39.7633C50.767 39.7633 51.5319 39.5193 52.1386 39.0313C52.7453 38.5433 53.1937 37.8938 53.4839 37.0827C53.7806 36.2716 53.929 35.378 53.929 34.4021C53.929 33.4327 53.7806 32.5425 53.4839 31.7313C53.1937 30.9136 52.7453 30.2575 52.1386 29.7629C51.5319 29.2683 50.767 29.0211 49.8438 29.0211C48.914 29.0211 48.1424 29.2683 47.5291 29.7629C46.9225 30.2575 46.4707 30.9136 46.174 31.7313C45.8838 32.5425 45.7388 33.4327 45.7388 34.4021C45.7388 35.378 45.8838 36.2716 46.174 37.0827C46.4707 37.8938 46.9225 38.5433 47.5291 39.0313C48.1424 39.5193 48.914 39.7633 49.8438 39.7633ZM69.8421 35.6385V26.746H72.8095V41.9395H69.9014V39.3083H69.7431C69.3936 40.1194 68.8331 40.7953 68.0616 41.3361C67.2966 41.8702 66.3437 42.1373 65.2029 42.1373C64.2269 42.1373 63.3631 41.923 62.6113 41.4943C61.8661 41.0591 61.2792 40.4162 60.8506 39.5655C60.4286 38.7148 60.2176 37.663 60.2176 36.4101V26.746H63.1751V36.054C63.1751 37.0893 63.462 37.9136 64.0357 38.5269C64.6094 39.1401 65.3546 39.4468 66.2712 39.4468C66.8251 39.4468 67.3758 39.3083 67.9231 39.0313C68.477 38.7544 68.9353 38.3356 69.298 37.7751C69.6673 37.2146 69.8486 36.5024 69.8421 35.6385ZM79.741 21.6815V41.9395H76.7835V21.6815H79.741ZM89.4076 42.2362C88.181 42.2362 87.0864 41.923 86.1236 41.2965C85.1674 40.6634 84.4156 39.7633 83.8683 38.5961C83.3276 37.4223 83.0572 36.0144 83.0572 34.3724C83.0572 32.7304 83.3309 31.3258 83.8782 30.1586C84.4321 28.9914 85.1905 28.0978 86.1533 27.478C87.116 26.8581 88.2074 26.5482 89.4274 26.5482C90.3704 26.5482 91.1287 26.7064 91.7024 27.023C92.2827 27.3329 92.7312 27.6956 93.0477 28.111C93.3708 28.5265 93.6214 28.8925 93.7994 29.209H93.9775V21.6815H96.9351V41.9395H94.0467V39.5754H93.7994C93.6214 39.8985 93.3642 40.2678 93.0279 40.6832C92.6982 41.0987 92.2432 41.4614 91.6629 41.7713C91.0826 42.0812 90.3308 42.2362 89.4076 42.2362ZM90.0604 39.7138C90.9111 39.7138 91.6299 39.4896 92.2168 39.0412C92.8103 38.5862 93.2587 37.9564 93.5621 37.1519C93.872 36.3474 94.027 35.411 94.027 34.3427C94.027 33.2876 93.8753 32.3644 93.5719 31.5731C93.2686 30.7818 92.8235 30.1652 92.2366 29.7234C91.6497 29.2815 90.9243 29.0606 90.0604 29.0606C89.1702 29.0606 88.4283 29.2914 87.8348 29.753C87.2413 30.2146 86.7929 30.8444 86.4896 31.6423C86.1928 32.4402 86.0445 33.3404 86.0445 34.3427C86.0445 35.3583 86.1961 36.2716 86.4995 37.0827C86.8028 37.8938 87.2512 38.5368 87.8447 39.0115C88.4448 39.4797 89.1834 39.7138 90.0604 39.7138ZM110.398 47.637C109.956 47.637 109.553 47.6007 109.191 47.5282C108.828 47.4622 108.558 47.3897 108.38 47.3106L109.092 44.8871C109.633 45.0322 110.114 45.0949 110.536 45.0751C110.958 45.0553 111.331 44.897 111.654 44.6003C111.983 44.3035 112.274 43.8189 112.524 43.1462L112.89 42.1373L107.331 26.746H110.496L114.344 38.5368H114.503L118.35 26.746H121.526L115.264 43.9672C114.974 44.7586 114.605 45.4279 114.156 45.9752C113.708 46.5291 113.174 46.9446 112.554 47.2216C111.934 47.4985 111.215 47.637 110.398 47.637ZM130.188 42.2461C128.764 42.2461 127.521 41.9197 126.459 41.2668C125.397 40.614 124.573 39.7007 123.986 38.5269C123.399 37.3531 123.106 35.9814 123.106 34.412C123.106 32.8359 123.399 31.4577 123.986 30.2773C124.573 29.0969 125.397 28.1803 126.459 27.5274C127.521 26.8746 128.764 26.5482 130.188 26.5482C131.612 26.5482 132.856 26.8746 133.917 27.5274C134.979 28.1803 135.803 29.0969 136.39 30.2773C136.977 31.4577 137.27 32.8359 137.27 34.412C137.27 35.9814 136.977 37.3531 136.39 38.5269C135.803 39.7007 134.979 40.614 133.917 41.2668C132.856 41.9197 131.612 42.2461 130.188 42.2461ZM130.198 39.7633C131.121 39.7633 131.886 39.5193 132.493 39.0313C133.099 38.5433 133.548 37.8938 133.838 37.0827C134.135 36.2716 134.283 35.378 134.283 34.4021C134.283 33.4327 134.135 32.5425 133.838 31.7313C133.548 30.9136 133.099 30.2575 132.493 29.7629C131.886 29.2683 131.121 29.0211 130.198 29.0211C129.268 29.0211 128.497 29.2683 127.883 29.7629C127.277 30.2575 126.825 30.9136 126.528 31.7313C126.238 32.5425 126.093 33.4327 126.093 34.4021C126.093 35.378 126.238 36.2716 126.528 37.0827C126.825 37.8938 127.277 38.5433 127.883 39.0313C128.497 39.5193 129.268 39.7633 130.198 39.7633ZM150.196 35.6385V26.746H153.164V41.9395H150.256V39.3083H150.097C149.748 40.1194 149.187 40.7953 148.416 41.3361C147.651 41.8702 146.698 42.1373 145.557 42.1373C144.581 42.1373 143.717 41.923 142.966 41.4943C142.22 41.0591 141.633 40.4162 141.205 39.5655C140.783 38.7148 140.572 37.663 140.572 36.4101V26.746H143.529V36.054C143.529 37.0893 143.816 37.9136 144.39 38.5269C144.964 39.1401 145.709 39.4468 146.625 39.4468C147.179 39.4468 147.73 39.3083 148.277 39.0313C148.831 38.7544 149.29 38.3356 149.652 37.7751C150.021 37.2146 150.203 36.5024 150.196 35.6385ZM167.467 21.6815V41.9395H164.509V21.6815H167.467ZM171.446 41.9395V26.746H174.403V41.9395H171.446ZM172.939 24.4017C172.425 24.4017 171.983 24.2302 171.614 23.8873C171.251 23.5378 171.07 23.1224 171.07 22.641C171.07 22.153 171.251 21.7376 171.614 21.3947C171.983 21.0452 172.425 20.8704 172.939 20.8704C173.454 20.8704 173.892 21.0452 174.255 21.3947C174.624 21.7376 174.809 22.153 174.809 22.641C174.809 23.1224 174.624 23.5378 174.255 23.8873C173.892 24.2302 173.454 24.4017 172.939 24.4017ZM181.102 36.7859L181.083 33.1755H181.597L187.651 26.746H191.192L184.288 34.0658H183.823L181.102 36.7859ZM178.382 41.9395V21.6815H181.34V41.9395H178.382ZM187.977 41.9395L182.537 34.7186L184.574 32.6513L191.607 41.9395H187.977ZM199.81 42.2461C198.313 42.2461 197.024 41.9263 195.942 41.2866C194.867 40.6404 194.037 39.7336 193.45 38.5664C192.869 37.3926 192.579 36.0177 192.579 34.4416C192.579 32.8854 192.869 31.5137 193.45 30.3267C194.037 29.1398 194.854 28.2132 195.903 27.5472C196.958 26.8812 198.191 26.5482 199.602 26.5482C200.459 26.5482 201.29 26.6899 202.095 26.9735C202.899 27.2571 203.621 27.7022 204.261 28.3089C204.901 28.9155 205.405 29.7036 205.775 30.673C206.144 31.6357 206.328 32.8062 206.328 34.1845V35.233H194.251V33.0173H203.43C203.43 32.2391 203.272 31.55 202.955 30.9499C202.639 30.3432 202.194 29.8651 201.62 29.5156C201.053 29.1661 200.387 28.9914 199.622 28.9914C198.791 28.9914 198.066 29.1958 197.446 29.6047C196.833 30.0069 196.358 30.5345 196.021 31.1873C195.692 31.8336 195.527 32.5359 195.527 33.2942V35.0252C195.527 36.0408 195.705 36.9046 196.061 37.6168C196.424 38.329 196.928 38.8731 197.574 39.2489C198.221 39.6182 198.976 39.8029 199.84 39.8029C200.4 39.8029 200.911 39.7237 201.373 39.5655C201.834 39.4006 202.233 39.1566 202.57 38.8335C202.906 38.5104 203.163 38.1114 203.341 37.6366L206.141 38.1411C205.916 38.9654 205.514 39.6875 204.934 40.3073C204.36 40.9206 203.638 41.3987 202.767 41.7416C201.904 42.0779 200.918 42.2461 199.81 42.2461ZM219.939 32.9183V41.9395H216.982V21.6815H219.9V29.2189H220.088C220.444 28.4012 220.988 27.7516 221.72 27.2702C222.452 26.7889 223.408 26.5482 224.588 26.5482C225.63 26.5482 226.54 26.7625 227.318 27.1911C228.103 27.6198 228.71 28.2594 229.138 29.1101C229.574 29.9542 229.791 31.0093 229.791 32.2754V41.9395H226.834V32.6315C226.834 31.517 226.547 30.6532 225.973 30.0399C225.399 29.42 224.601 29.1101 223.579 29.1101C222.88 29.1101 222.254 29.2585 221.7 29.5552C221.153 29.8519 220.721 30.2872 220.404 30.8609C220.094 31.428 219.939 32.1138 219.939 32.9183ZM240.286 42.2461C238.789 42.2461 237.5 41.9263 236.419 41.2866C235.344 40.6404 234.513 39.7336 233.926 38.5664C233.346 37.3926 233.055 36.0177 233.055 34.4416C233.055 32.8854 233.346 31.5137 233.926 30.3267C234.513 29.1398 235.331 28.2132 236.379 27.5472C237.434 26.8812 238.667 26.5482 240.079 26.5482C240.936 26.5482 241.767 26.6899 242.571 26.9735C243.376 27.2571 244.098 27.7022 244.737 28.3089C245.377 28.9155 245.882 29.7036 246.251 30.673C246.62 31.6357 246.805 32.8062 246.805 34.1845V35.233H234.727V33.0173H243.907C243.907 32.2391 243.748 31.55 243.432 30.9499C243.115 30.3432 242.67 29.8651 242.096 29.5156C241.529 29.1661 240.863 28.9914 240.098 28.9914C239.267 28.9914 238.542 29.1958 237.922 29.6047C237.309 30.0069 236.834 30.5345 236.498 31.1873C236.168 31.8336 236.003 32.5359 236.003 33.2942V35.0252C236.003 36.0408 236.181 36.9046 236.537 37.6168C236.9 38.329 237.404 38.8731 238.051 39.2489C238.697 39.6182 239.452 39.8029 240.316 39.8029C240.876 39.8029 241.387 39.7237 241.849 39.5655C242.311 39.4006 242.71 39.1566 243.046 38.8335C243.382 38.5104 243.639 38.1114 243.818 37.6366L246.617 38.1411C246.393 38.9654 245.99 39.6875 245.41 40.3073C244.836 40.9206 244.114 41.3987 243.244 41.7416C242.38 42.0779 241.394 42.2461 240.286 42.2461ZM253.044 21.6815V41.9395H250.086V21.6815H253.044ZM257.023 47.637V26.746H259.911V29.209H260.158C260.33 28.8925 260.577 28.5265 260.9 28.111C261.223 27.6956 261.672 27.3329 262.246 27.023C262.819 26.7064 263.578 26.5482 264.521 26.5482C265.747 26.5482 266.842 26.8581 267.805 27.478C268.767 28.0978 269.522 28.9914 270.07 30.1586C270.624 31.3258 270.901 32.7304 270.901 34.3724C270.901 36.0144 270.627 37.4223 270.08 38.5961C269.532 39.7633 268.781 40.6634 267.824 41.2965C266.868 41.923 265.777 42.2362 264.55 42.2362C263.627 42.2362 262.872 42.0812 262.285 41.7713C261.705 41.4614 261.25 41.0987 260.92 40.6832C260.59 40.2678 260.336 39.8985 260.158 39.5754H259.98V47.637H257.023ZM259.921 34.3427C259.921 35.411 260.076 36.3474 260.386 37.1519C260.696 37.9564 261.144 38.5862 261.731 39.0412C262.318 39.4896 263.037 39.7138 263.888 39.7138C264.771 39.7138 265.51 39.4797 266.103 39.0115C266.697 38.5368 267.145 37.8938 267.449 37.0827C267.758 36.2716 267.913 35.3583 267.913 34.3427C267.913 33.3404 267.762 32.4402 267.458 31.6423C267.162 30.8444 266.713 30.2146 266.113 29.753C265.52 29.2914 264.778 29.0606 263.888 29.0606C263.03 29.0606 262.305 29.2815 261.711 29.7234C261.124 30.1652 260.679 30.7818 260.376 31.5731C260.073 32.3644 259.921 33.2876 259.921 34.3427ZM277.449 36.1133V35.9254C277.462 34.6988 277.584 33.7229 277.815 32.9975C278.052 32.2721 278.389 31.6852 278.824 31.2368C279.259 30.7884 279.783 30.3795 280.397 30.0102C280.792 29.7596 281.148 29.4794 281.465 29.1694C281.781 28.8595 282.032 28.5034 282.217 28.1011C282.401 27.6989 282.494 27.2538 282.494 26.7658C282.494 26.1789 282.355 25.6711 282.078 25.2425C281.801 24.8138 281.432 24.4841 280.97 24.2533C280.515 24.0159 280.008 23.8972 279.447 23.8972C278.939 23.8972 278.455 24.0027 277.993 24.2138C277.531 24.4248 277.149 24.7545 276.846 25.2029C276.542 25.6447 276.367 26.2151 276.321 26.9142H273.314C273.36 25.7272 273.66 24.7248 274.214 23.9071C274.768 23.0828 275.5 22.4596 276.41 22.0376C277.327 21.6156 278.339 21.4045 279.447 21.4045C280.66 21.4045 281.722 21.6321 282.632 22.0871C283.542 22.5355 284.248 23.1652 284.749 23.9764C285.257 24.7809 285.511 25.7206 285.511 26.7955C285.511 27.534 285.395 28.2001 285.164 28.7936C284.934 29.3805 284.604 29.9047 284.175 30.3663C283.753 30.8279 283.245 31.2368 282.652 31.5929C282.091 31.9424 281.636 32.3051 281.287 32.6809C280.944 33.0568 280.693 33.5019 280.535 34.0163C280.377 34.5307 280.291 35.167 280.278 35.9254V36.1133H277.449ZM278.943 42.1274C278.402 42.1274 277.937 41.9362 277.548 41.5537C277.159 41.1646 276.964 40.6964 276.964 40.1491C276.964 39.6083 277.159 39.1467 277.548 38.7643C277.937 38.3752 278.402 38.1807 278.943 38.1807C279.477 38.1807 279.938 38.3752 280.327 38.7643C280.723 39.1467 280.921 39.6083 280.921 40.1491C280.921 40.5118 280.829 40.8448 280.644 41.1481C280.466 41.4449 280.228 41.6823 279.932 41.8603C279.635 42.0384 279.305 42.1274 278.943 42.1274Z" fill="#171717"/>
</svg>
